<svg id="my22-civic-sedan-white" xmlns="http://www.w3.org/2000/svg" viewBox="0 0 262 90">
	<style type="text/css">
		#my22-civic-sedan-white {fill: #fff}
	</style>
	<path d="M73.8,16.1c0.3,0,0.9-0.2,0.9-1v-4.8h5.1c0.8,0,0.9-0.5,0.9-0.8c0-0.2-0.1-0.8-0.9-0.8h-5.1
		v-4h5.4C80.9,4.8,81,4.3,81,4c0-0.3-0.1-0.8-0.9-0.8h-6.2c-0.7,0-1.1,0.3-1.1,1.1v10.8C72.9,16,73.5,16.1,73.8,16.1z M86.1,16.2
		c1.2,0,2.4-0.7,2.8-1.6h0.1v0.7c0,0.8,0.5,0.9,0.8,0.9c0.3,0,0.8-0.1,0.8-0.9v-7c0-0.8-0.6-0.9-0.8-0.9s-0.8,0.1-0.8,0.9V12
		c0,1.7-0.9,2.8-2.3,2.8c-1.6,0-1.9-1.2-1.9-2.6V8.3c0-0.8-0.6-0.9-0.8-0.9s-0.8,0.1-0.8,0.9v4.5C82.9,14.7,83.9,16.2,86.1,16.2z
		 M96.2,16.1c0.4,0,0.8-0.1,1.1-0.2c0.3-0.2,0.5-0.4,0.5-0.7c0-0.4-0.3-0.7-0.7-0.7c-0.1,0-0.2,0-0.3,0.1c-0.1,0-0.3,0.1-0.4,0.1
		c-0.6,0-1-0.4-1-1.4V8.9H97c0.7,0,0.8-0.5,0.8-0.7c0-0.2-0.1-0.7-0.8-0.7h-1.6V5.8c0-0.8-0.6-0.9-0.8-0.9c-0.3,0-0.8,0.1-0.8,0.9
		v1.7h-1c-0.7,0-0.8,0.5-0.8,0.7c0,0.2,0.1,0.7,0.8,0.7h1v4.6C93.7,15.2,94.6,16.1,96.2,16.1z M102.5,16.2c1.2,0,2.4-0.7,2.8-1.6h0.1
		v0.7c0,0.8,0.5,0.9,0.8,0.9c0.3,0,0.8-0.1,0.8-0.9v-7c0-0.8-0.6-0.9-0.8-0.9s-0.8,0.1-0.8,0.9V12c0,1.7-0.9,2.8-2.3,2.8
		c-1.6,0-1.9-1.2-1.9-2.6V8.3c0-0.8-0.6-0.9-0.8-0.9s-0.8,0.1-0.8,0.9v4.5C99.3,14.7,100.3,16.2,102.5,16.2z M110.7,16.1
		c0.3,0,0.8-0.1,0.8-0.9v-3.6c0-1.8,1-2.8,2.3-2.8h0.1c0.6,0,1-0.2,1-0.8c0-0.5-0.5-0.8-1-0.8c-1.1,0-2.1,0.7-2.5,1.7h-0.1V8.2
		c0-0.8-0.5-0.9-0.8-0.9c-0.3,0-0.8,0.1-0.8,0.9v7C109.9,16,110.4,16.1,110.7,16.1z M120.3,16.2c1.3,0,2.4-0.4,3.2-1.3
		c0.2-0.2,0.3-0.5,0.3-0.6c0-0.4-0.3-0.7-0.7-0.7c-0.2,0-0.4,0.1-0.6,0.3c-0.5,0.5-1.2,0.9-2.2,0.9c-1.5,0-2.7-1.1-2.8-2.6h5.9
		c0.6,0,0.9-0.3,0.9-0.9c0-0.2,0-0.3,0-0.6c-0.3-2.3-1.9-3.6-4.1-3.6c-2.5,0-4.4,1.8-4.4,4.5S117.7,16.2,120.3,16.2z M122.6,11h-5.1
		c0.1-1.3,1.2-2.4,2.7-2.4C121.8,8.6,122.6,9.6,122.6,11z M135.5,16.1c0.4,0,0.9-0.1,1.2-1l4.2-10.6c0.1-0.3,0.1-0.5,0.1-0.6
		c0-0.5-0.4-0.9-0.9-0.9c-0.3,0-0.7,0.1-0.9,0.7l-3.7,9.9h-0.1l-3.7-9.8c-0.2-0.6-0.6-0.7-0.9-0.7c-0.5,0-0.9,0.4-0.9,0.9
		c0,0.1,0,0.3,0.1,0.5l4.2,10.6C134.6,16,135.1,16.1,135.5,16.1z M146.7,16.2c1.4,0,2.4-0.4,3.2-1.3c0.2-0.2,0.3-0.5,0.3-0.6
		c0-0.4-0.3-0.7-0.7-0.7c-0.2,0-0.4,0.1-0.6,0.3c-0.5,0.5-1.2,0.9-2.2,0.9c-1.5,0-2.7-1.1-2.8-2.6h5.9c0.6,0,0.9-0.3,0.9-0.9
		c0-0.2,0-0.3,0-0.6c-0.3-2.3-1.9-3.6-4.1-3.6c-2.5,0-4.4,1.8-4.4,4.5S144.1,16.2,146.7,16.2z M149,11h-5.1c0.1-1.3,1.2-2.4,2.7-2.4
		C148.2,8.6,149,9.6,149,11z M159.9,16.1c0.3,0,0.9-0.1,0.9-0.9v-4.5c0-1.9-1-3.5-3.2-3.5c-1.2,0-2.3,0.7-2.7,1.5h0V3.2
		c0-0.8-0.6-0.9-0.9-0.9s-0.9,0.1-0.9,0.9v12c0,0.8,0.6,0.9,0.9,0.9s0.9-0.1,0.9-0.9v-3.7c0-1.7,1-2.8,2.3-2.8c1.6,0,1.9,1.2,1.9,2.6
		v3.9C159,16,159.6,16.1,159.9,16.1z M164.4,5.5c0.6,0,1.1-0.5,1.1-1.1c0-0.6-0.5-1.1-1.1-1.1s-1.1,0.5-1.1,1.1
		C163.3,5,163.8,5.5,164.4,5.5z M164.4,16.1c0.3,0,0.9-0.1,0.9-0.9V8.3c0-0.8-0.6-0.9-0.9-0.9c-0.3,0-0.9,0.1-0.9,0.9v6.9
		C163.6,16,164.2,16.1,164.4,16.1z M172.3,16.2c0.9,0,1.9-0.3,2.6-0.8c0.3-0.3,0.4-0.5,0.4-0.7c0-0.4-0.3-0.7-0.7-0.7
		c-0.2,0-0.4,0.1-0.6,0.3c-0.4,0.4-1,0.6-1.7,0.6c-1.8,0-2.8-1.4-2.8-3.1c0-1.6,1-3.1,2.8-3.1c0.6,0,1.2,0.3,1.5,0.5
		c0.3,0.3,0.5,0.3,0.7,0.3c0.4,0,0.8-0.3,0.8-0.7c0-0.2-0.1-0.5-0.4-0.7c-0.7-0.5-1.6-0.8-2.5-0.8c-2.6,0-4.6,1.8-4.6,4.5
		C167.7,14.4,169.6,16.2,172.3,16.2z M178,16.1c0.3,0,0.9-0.1,0.9-0.9v-12c0-0.8-0.6-0.9-0.9-0.9c-0.3,0-0.9,0.1-0.9,0.9v12
		C177.2,16,177.7,16.1,178,16.1z M185.8,16.2c1.4,0,2.4-0.4,3.2-1.3c0.2-0.2,0.3-0.5,0.3-0.6c0-0.4-0.3-0.7-0.7-0.7
		c-0.2,0-0.4,0.1-0.6,0.3c-0.5,0.5-1.2,0.9-2.2,0.9c-1.5,0-2.7-1.1-2.8-2.6h5.9c0.6,0,0.9-0.3,0.9-0.9c0-0.2,0-0.3,0-0.6
		c-0.3-2.3-1.9-3.6-4.1-3.6c-2.5,0-4.4,1.8-4.4,4.5S183.2,16.2,185.8,16.2z M188.1,11H183c0.1-1.3,1.2-2.4,2.7-2.4
		C187.2,8.6,188,9.6,188.1,11z"/>
	<path d="M61.3,11.7h-60c-0.7,0-1.2-0.5-1.2-1.2s0.5-1.2,1.2-1.2h60c0.7,0,1.2,0.5,1.2,1.2S62,11.7,61.3,11.7z"/>
	<path d="M261,11.7h-60c-0.7,0-1.2-0.5-1.2-1.2s0.5-1.2,1.2-1.2h60c0.7,0,1.2,0.5,1.2,1.2S261.7,11.7,261,11.7z"/>
	<path d="M105.1,90.3c2.3,0,4.4-1.2,4.4-3.9c0-2.5-2-3.2-3.7-3.7c-1.4-0.5-2.6-0.8-2.6-2.2
		c0-1.4,1.3-2.1,2.5-2.1c0.7,0,1.3,0.2,2,0.7c0.3,0.3,0.5,0.3,0.7,0.3c0.5,0,0.8-0.4,0.8-0.8c0-0.2-0.1-0.4-0.4-0.7
		c-0.7-0.6-1.8-1-3-1c-2.1,0-4.4,1.1-4.4,3.6c0,2.3,1.7,3.1,3.3,3.6c1.6,0.5,3,0.9,3,2.5c0,1.5-1.4,2.2-2.6,2.2c-0.9,0-1.7-0.3-2.4-1
		c-0.3-0.2-0.5-0.3-0.7-0.3c-0.5,0-0.8,0.4-0.8,0.8c0,0.2,0.1,0.5,0.4,0.8C102.5,89.9,103.8,90.3,105.1,90.3z M119.8,90
		c0.8,0,0.9-0.5,0.9-0.8s-0.1-0.8-0.9-0.8h-5.9v-4.3h5.3c0.8,0,0.9-0.5,0.9-0.8c0-0.2-0.1-0.8-0.9-0.8h-5.3v-3.8h5.7
		c0.8,0,0.9-0.5,0.9-0.8c0-0.3-0.1-0.8-0.9-0.8h-6.4c-0.7,0-1.1,0.3-1.1,1.1v10.6c0,0.7,0.3,1.1,1.1,1.1H119.8z M127.3,90
		c3.3,0,6.9-2,6.9-6.4c0-4.5-3.6-6.4-6.9-6.4H124c-0.7,0-1.1,0.3-1.1,1.1v10.6c0,0.7,0.3,1.1,1.1,1.1C124,90,127.3,90,127.3,90z
		 M126.9,88.4h-2.2v-9.6h2.2c3.1,0,5.3,1.7,5.3,4.8C132.2,86.7,130,88.4,126.9,88.4z M146.6,90.1c0.5,0,0.9-0.3,0.9-0.9
		c0-0.1,0-0.3-0.1-0.5L142.6,78c-0.4-0.8-0.8-0.9-1.1-0.9s-0.8,0.1-1.1,0.9l-4.8,10.7c-0.1,0.2-0.1,0.4-0.1,0.5
		c0,0.5,0.4,0.9,0.9,0.9c0.3,0,0.6-0.1,0.9-0.7l1.1-2.6h6.3l1.1,2.6C145.9,90,146.3,90.1,146.6,90.1z M143.9,85.3h-5l2.5-5.9
		L143.9,85.3z M159,90.1c0.4,0,1.1-0.2,1.1-1.3V78.1c0-0.8-0.6-1-0.9-1c-0.3,0-0.9,0.2-0.9,1v8.9h0l-6.5-9c-0.5-0.8-0.9-0.9-1.3-0.9
		c-0.4,0-1.1,0.2-1.1,1.3v10.7c0,0.8,0.6,1,0.9,1c0.3,0,0.9-0.2,0.9-1v-9h0l6.5,9.1C158.3,90,158.6,90.1,159,90.1z"/>
	<path d="M85.1,66.9c1.4-0.1,1.9-0.9,1.9-2.3V30.4c0-1.3-0.5-2.1-1.9-2.3c-1.5-0.2-7.7-0.2-9.2,0
		c-0.8,0.1-1.9,0.5-1.9,2.3v34.2c0,1.3,0.5,2.2,1.9,2.3C77.4,67.1,83.7,67,85.1,66.9"/>
	<path d="M186.1,66.9c1.4-0.1,1.9-0.9,1.9-2.3V30.4c0-1.3-0.5-2.1-1.9-2.3c-1.5-0.2-7.7-0.2-9.2,0
		c-0.8,0.1-1.9,0.5-1.9,2.3v34.2c0,1.3,0.5,2.2,1.9,2.3C178.4,67.1,184.7,67,186.1,66.9"/>
	<path d="M157.4,29.5c0.7-1.1,1-1.4,2.2-1.4c0.3,0,3.4,0,3.8,0c1.9,0.1,2,0.9,1.1,2.2l-21.9,32.3
		c0,0-0.7,1-1.5,2c-1.1,1.5-2.5,2.2-4.3,2.3c-1,0.1-7,0.1-8.4,0.1c-1.3,0-2.5,0-3.3-0.1c-2.6-0.2-3.8-1.1-5.2-2.9
		c-0.1-0.2-0.5-0.7-1.1-1.4c-4.3-6.3-21.6-31.9-21.6-31.9c-0.8-1.2-0.3-2.6,1.3-2.6c1.1-0.1,8.1,0,9.5,0c2.9,0.1,2.9,0.1,4.1,1.9
		c0.2,0.2,14.3,21.4,18.7,27.8c0.3,0.5,0.6,0.9,0.8,1.2s0.6,0.7,0.9,1c0.4,0.3,0.7,0.6,1.9,0.6c0.9,0,1.5-0.2,2-0.5
		c0.5-0.4,1-1,1.7-2C142.6,51.6,157.2,29.7,157.4,29.5"/>
	<path d="M58.1,33c1.1,0,1.9-0.1,2-1.5c0-0.6,0-1.4,0-1.9c-0.1-1.3-0.7-1.6-2-1.6H28.6c-1.6,0-4.9,0-8.1,0.2
		c-2.5,0.2-7.8,0.9-11,2.9C3.4,34.8,1,40.5,1,46.3C1,52.1,2.8,58.2,8,62c3.9,2.8,11.2,4,17.4,4c6.4,0,25.5,0,33.1,0c0,0,0.8,0,2.6,0
		c1.3,0,1.9-0.3,2-1.6c0-0.6,0-1.9,0-2.4c-0.1-1.4-0.9-1.5-2-1.5h0h-2.6v0c-2.2,0-21.6,0-23.3,0c-1.7,0-10.9-0.2-13.4-1.3
		c-4.9-2.1-7.5-6-7.6-12.9c0-5.1,1.7-9,6-11.3c2.6-1.4,9.2-2,15.7-2L58.1,33L58.1,33z"/>
	<path d="M256.1,33c1.1,0,1.9-0.1,2-1.5c0-0.6,0-1.4,0-1.9c-0.1-1.3-0.7-1.6-2-1.6h-29.5
		c-1.6,0-4.9,0-8.1,0.2c-2.5,0.2-7.8,0.9-11,2.9c-6,3.7-8.4,9.4-8.4,15.2c0,5.8,1.8,11.9,7,15.7c3.9,2.8,11.2,4.1,17.4,4.1
		c6.4,0,25.4,0,33.1,0c0,0,0.9,0,2.6,0c1.3,0,1.9-0.3,2-1.6c0-0.6,0-1.9,0-2.4c-0.1-1.4-0.9-1.5-2-1.5h0h-2.6v0c-2.2,0-21.6,0-23.3,0
		c-1.6,0-10.9-0.2-13.4-1.3c-4.9-2.1-7.5-6-7.6-12.9c0-5.1,1.7-9,6-11.3c2.6-1.4,9.2-2,15.7-2L256.1,33L256.1,33z"/>
	<path d="M89.2,84.7H1.3c-0.7,0-1.2-0.5-1.2-1.2s0.5-1.2,1.2-1.2h87.9c0.7,0,1.2,0.5,1.2,1.2S89.9,84.7,89.2,84.7z"/>
	<path d="M260.9,84.7H173c-0.7,0-1.2-0.5-1.2-1.2s0.5-1.2,1.2-1.2h87.9c0.7,0,1.2,0.5,1.2,1.2S261.6,84.7,260.9,84.7z"/>
</svg>
